<svg width="24" height="24" viewBox="0 0 24 24" fill="none" xmlns="http://www.w3.org/2000/svg">
<path d="M12 24C5.38293 24 0 18.6171 0 12C0 5.38293 5.38293 0 12 0C18.6171 0 24 5.38293 24 12C24 18.6171 18.6171 24 12 24ZM12 1.5C6.21002 1.5 1.5 6.21002 1.5 12C1.5 17.79 6.21002 22.5 12 22.5C17.79 22.5 22.5 17.79 22.5 12C22.5 6.21002 17.79 1.5 12 1.5Z" fill="#F1594B"/>
<path d="M10.8748 16.0001C10.6827 16.0001 10.4908 15.9272 10.3447 15.7802L7.09473 12.5303C6.80176 12.2371 6.80176 11.7621 7.09473 11.4692C7.3877 11.1762 7.86267 11.1762 8.15582 11.4692L10.8757 14.1892L16.8458 8.21924C17.1388 7.92627 17.6138 7.92627 17.9067 8.21924C18.1997 8.51221 18.1997 8.98718 17.9067 9.28015L11.4067 15.7802C11.2587 15.9272 11.0668 16.0001 10.8748 16.0001Z" fill="#F1594B"/>
</svg>
