<svg width="78" height="41" viewBox="0 0 78 41" fill="none" xmlns="http://www.w3.org/2000/svg">
<mask id="path-1-outside-1_19:233" maskUnits="userSpaceOnUse" x="0" y="0" width="78" height="41" fill="black">
<rect fill="white" width="78" height="41"/>
<path d="M8.19884 1.18103V22.3007H6.02653V3.11197H1.04832V1.18103H8.19884Z"/>
<path d="M21.665 22.4817C20.0358 22.4817 18.5775 22.0493 17.2902 21.1844C16.023 20.3195 15.0274 19.0825 14.3033 17.4734C13.5993 15.8441 13.2473 13.9333 13.2473 11.7409C13.2473 9.54845 13.5993 7.64767 14.3033 6.03855C15.0274 4.40932 16.023 3.16225 17.2902 2.29735C18.5775 1.43245 20.0358 1 21.665 1C23.2942 1 24.7424 1.43245 26.0096 2.29735C27.2969 3.16225 28.3026 4.40932 29.0267 6.03855C29.7508 7.64767 30.1129 9.54845 30.1129 11.7409C30.1129 13.9333 29.7508 15.8441 29.0267 17.4734C28.3026 19.0825 27.2969 20.3195 26.0096 21.1844C24.7424 22.0493 23.2942 22.4817 21.665 22.4817ZM21.665 20.4905C22.892 20.4905 23.9681 20.1485 24.8933 19.4646C25.8387 18.7808 26.5728 17.7851 27.0958 16.4777C27.6187 15.1703 27.8802 13.5914 27.8802 11.7409C27.8802 9.89038 27.6187 8.31144 27.0958 7.00403C26.5728 5.69662 25.8387 4.70097 24.8933 4.0171C23.9681 3.33322 22.892 2.99128 21.665 2.99128C20.438 2.99128 19.3519 3.33322 18.4065 4.0171C17.4813 4.70097 16.7572 5.69662 16.2342 7.00403C15.7113 8.31144 15.4498 9.89038 15.4498 11.7409C15.4498 13.5914 15.7113 15.1703 16.2342 16.4777C16.7572 17.7851 17.4813 18.7808 18.4065 19.4646C19.3519 20.1485 20.438 20.4905 21.665 20.4905Z"/>
<path d="M41.6415 22.4817C40.0123 22.4817 38.554 22.0493 37.2667 21.1844C35.9995 20.3195 35.0039 19.0825 34.2798 17.4734C33.5758 15.8441 33.2238 13.9333 33.2238 11.7409C33.2238 9.54845 33.5758 7.64767 34.2798 6.03855C35.0039 4.40932 35.9995 3.16225 37.2667 2.29735C38.554 1.43245 40.0123 1 41.6415 1C43.2707 1 44.7189 1.43245 45.9861 2.29735C47.2734 3.16225 48.2791 4.40932 49.0032 6.03855C49.7273 7.64767 50.0894 9.54845 50.0894 11.7409C50.0894 13.9333 49.7273 15.8441 49.0032 17.4734C48.2791 19.0825 47.2734 20.3195 45.9861 21.1844C44.7189 22.0493 43.2707 22.4817 41.6415 22.4817ZM41.6415 20.4905C42.8684 20.4905 43.9445 20.1485 44.8698 19.4646C45.8151 18.7808 46.5493 17.7851 47.0723 16.4777C47.5952 15.1703 47.8567 13.5914 47.8567 11.7409C47.8567 9.89038 47.5952 8.31144 47.0723 7.00403C46.5493 5.69662 45.8151 4.70097 44.8698 4.0171C43.9445 3.33322 42.8684 2.99128 41.6415 2.99128C40.4145 2.99128 39.3284 3.33322 38.383 4.0171C37.4578 4.70097 36.7337 5.69662 36.2107 7.00403C35.6878 8.31144 35.4263 9.89038 35.4263 11.7409C35.4263 13.5914 35.6878 15.1703 36.2107 16.4777C36.7337 17.7851 37.4578 18.7808 38.383 19.4646C39.3284 20.1485 40.4145 20.4905 41.6415 20.4905Z"/>
<path d="M57.6656 12.4951C56.2375 12.4951 55.0809 11.9722 54.1959 10.9263C53.331 9.86021 52.8986 8.47235 52.8986 6.76266C52.8986 5.05297 53.331 3.67516 54.1959 2.62923C55.0809 1.56319 56.2375 1.03017 57.6656 1.03017C59.0736 1.03017 60.2201 1.55313 61.1051 2.59906C61.9901 3.64499 62.4326 5.03286 62.4326 6.76266C62.4326 8.49246 61.9901 9.88033 61.1051 10.9263C60.2201 11.9722 59.0736 12.4951 57.6656 12.4951ZM70.4581 1.18103H72.2382L57.8164 22.3007H56.0364L70.4581 1.18103ZM57.6656 11.1375C58.6512 11.1375 59.4356 10.7553 60.0189 9.99095C60.6223 9.20651 60.924 8.13041 60.924 6.76266C60.924 5.39491 60.6223 4.32887 60.0189 3.56453C59.4356 2.78009 58.6512 2.38787 57.6656 2.38787C56.6599 2.38787 55.8654 2.78009 55.2821 3.56453C54.6988 4.34898 54.4071 5.41502 54.4071 6.76266C54.4071 8.1103 54.6988 9.17634 55.2821 9.96078C55.8654 10.7452 56.6599 11.1375 57.6656 11.1375ZM70.6089 22.4516C69.201 22.4516 68.0545 21.9286 67.1694 20.8827C66.2844 19.8166 65.8419 18.4288 65.8419 16.7191C65.8419 15.0094 66.2844 13.6316 67.1694 12.5857C68.0545 11.5196 69.201 10.9866 70.6089 10.9866C72.037 10.9866 73.1835 11.5196 74.0484 12.5857C74.9334 13.6316 75.376 15.0094 75.376 16.7191C75.376 18.4288 74.9334 19.8166 74.0484 20.8827C73.1835 21.9286 72.037 22.4516 70.6089 22.4516ZM70.6089 21.0939C71.6146 21.0939 72.4091 20.7017 72.9924 19.9172C73.5757 19.1328 73.8674 18.0667 73.8674 16.7191C73.8674 15.3714 73.5757 14.3054 72.9924 13.521C72.4091 12.7365 71.6146 12.3443 70.6089 12.3443C69.6234 12.3443 68.8288 12.7365 68.2254 13.521C67.6421 14.2853 67.3505 15.3513 67.3505 16.7191C67.3505 18.0868 67.6421 19.1629 68.2254 19.9474C68.8288 20.7117 69.6234 21.0939 70.6089 21.0939Z"/>
<path d="M6.62689 40.524C5.56085 40.524 4.6004 40.2927 3.74556 39.8301C2.89071 39.3574 2.2169 38.7087 1.7241 37.884C1.24137 37.0594 1 36.1391 1 35.1234C1 34.1076 1.24137 33.1874 1.7241 32.3627C2.2169 31.5381 2.89071 30.8944 3.74556 30.4318C4.6004 29.9591 5.56085 29.7228 6.62689 29.7228C7.68287 29.7228 8.63829 29.9591 9.49313 30.4318C10.348 30.8944 11.0168 31.5381 11.4995 32.3627C11.9822 33.1774 12.2236 34.0976 12.2236 35.1234C12.2236 36.1492 11.9822 37.0744 11.4995 37.8991C11.0168 38.7137 10.348 39.3574 9.49313 39.8301C8.63829 40.2927 7.68287 40.524 6.62689 40.524ZM6.62689 39.1814C7.40128 39.1814 8.09521 39.0054 8.70869 38.6534C9.33222 38.3014 9.81998 37.8187 10.172 37.2052C10.534 36.5816 10.7151 35.8877 10.7151 35.1234C10.7151 34.3591 10.534 33.6701 10.172 33.0567C9.81998 32.4331 9.33222 31.9454 8.70869 31.5934C8.09521 31.2414 7.40128 31.0654 6.62689 31.0654C5.8525 31.0654 5.14851 31.2414 4.51492 31.5934C3.89139 31.9454 3.39859 32.4331 3.03654 33.0567C2.68455 33.6701 2.50855 34.3591 2.50855 35.1234C2.50855 35.8877 2.68455 36.5816 3.03654 37.2052C3.39859 37.8187 3.89139 38.3014 4.51492 38.6534C5.14851 39.0054 5.8525 39.1814 6.62689 39.1814Z"/>
<path d="M21.5893 40.4033L19.3114 37.1599C19.0298 37.18 18.8086 37.1901 18.6477 37.1901H16.0379V40.4033H14.5293V29.8435H18.6477C20.0154 29.8435 21.0915 30.1703 21.876 30.824C22.6604 31.4777 23.0526 32.3778 23.0526 33.5243C23.0526 34.3389 22.8515 35.0329 22.4492 35.6061C22.0469 36.1794 21.4737 36.5967 20.7295 36.8582L23.2337 40.4033H21.5893ZM18.6024 35.9078C19.5578 35.9078 20.287 35.7017 20.7898 35.2893C21.2927 34.877 21.5441 34.2887 21.5441 33.5243C21.5441 32.76 21.2927 32.1767 20.7898 31.7744C20.287 31.3621 19.5578 31.1559 18.6024 31.1559H16.0379V35.9078H18.6024Z"/>
<path d="M25.4899 29.8435H26.9984V40.4033H25.4899V29.8435Z"/>
<path d="M37.4764 35.063H38.9246V39.1814C38.4016 39.6138 37.7932 39.9457 37.0992 40.177C36.4053 40.4083 35.6812 40.524 34.9269 40.524C33.8609 40.524 32.9004 40.2927 32.0456 39.8301C31.1907 39.3574 30.5169 38.7137 30.0241 37.8991C29.5414 37.0744 29.3 36.1492 29.3 35.1234C29.3 34.0976 29.5414 33.1723 30.0241 32.3477C30.5169 31.523 31.1907 30.8793 32.0456 30.4167C32.9105 29.9541 33.881 29.7228 34.9571 29.7228C35.8019 29.7228 36.5662 29.8636 37.2501 30.1452C37.944 30.4167 38.5323 30.819 39.0151 31.352L38.0798 32.2873C37.235 31.4727 36.2142 31.0654 35.0174 31.0654C34.2129 31.0654 33.4888 31.2414 32.8451 31.5934C32.2115 31.9353 31.7137 32.4181 31.3517 33.0416C30.9896 33.6551 30.8086 34.349 30.8086 35.1234C30.8086 35.8877 30.9896 36.5816 31.3517 37.2052C31.7137 37.8187 32.2115 38.3014 32.8451 38.6534C33.4888 39.0054 34.2078 39.1814 35.0023 39.1814C35.9477 39.1814 36.7724 38.9551 37.4764 38.5025V35.063Z"/>
<path d="M41.8129 29.8435H43.3214V40.4033H41.8129V29.8435Z"/>
<path d="M55.5643 29.8435V40.4033H54.3273L47.9914 32.5287V40.4033H46.4829V29.8435H47.7199L54.0558 37.7181V29.8435H55.5643Z"/>
<path d="M65.4532 37.7633H59.8414L58.6798 40.4033H57.126L61.9081 29.8435H63.4016L68.1988 40.4033H66.6148L65.4532 37.7633ZM64.9252 36.5565L62.6473 31.3822L60.3694 36.5565H64.9252Z"/>
<path d="M69.774 29.8435H71.2826V39.0909H77V40.4033H69.774V29.8435Z"/>
</mask>
<path d="M8.19884 1.18103V22.3007H6.02653V3.11197H1.04832V1.18103H8.19884Z" fill="#F1594B"/>
<path d="M21.665 22.4817C20.0358 22.4817 18.5775 22.0493 17.2902 21.1844C16.023 20.3195 15.0274 19.0825 14.3033 17.4734C13.5993 15.8441 13.2473 13.9333 13.2473 11.7409C13.2473 9.54845 13.5993 7.64767 14.3033 6.03855C15.0274 4.40932 16.023 3.16225 17.2902 2.29735C18.5775 1.43245 20.0358 1 21.665 1C23.2942 1 24.7424 1.43245 26.0096 2.29735C27.2969 3.16225 28.3026 4.40932 29.0267 6.03855C29.7508 7.64767 30.1129 9.54845 30.1129 11.7409C30.1129 13.9333 29.7508 15.8441 29.0267 17.4734C28.3026 19.0825 27.2969 20.3195 26.0096 21.1844C24.7424 22.0493 23.2942 22.4817 21.665 22.4817ZM21.665 20.4905C22.892 20.4905 23.9681 20.1485 24.8933 19.4646C25.8387 18.7808 26.5728 17.7851 27.0958 16.4777C27.6187 15.1703 27.8802 13.5914 27.8802 11.7409C27.8802 9.89038 27.6187 8.31144 27.0958 7.00403C26.5728 5.69662 25.8387 4.70097 24.8933 4.0171C23.9681 3.33322 22.892 2.99128 21.665 2.99128C20.438 2.99128 19.3519 3.33322 18.4065 4.0171C17.4813 4.70097 16.7572 5.69662 16.2342 7.00403C15.7113 8.31144 15.4498 9.89038 15.4498 11.7409C15.4498 13.5914 15.7113 15.1703 16.2342 16.4777C16.7572 17.7851 17.4813 18.7808 18.4065 19.4646C19.3519 20.1485 20.438 20.4905 21.665 20.4905Z" fill="#F1594B"/>
<path d="M41.6415 22.4817C40.0123 22.4817 38.554 22.0493 37.2667 21.1844C35.9995 20.3195 35.0039 19.0825 34.2798 17.4734C33.5758 15.8441 33.2238 13.9333 33.2238 11.7409C33.2238 9.54845 33.5758 7.64767 34.2798 6.03855C35.0039 4.40932 35.9995 3.16225 37.2667 2.29735C38.554 1.43245 40.0123 1 41.6415 1C43.2707 1 44.7189 1.43245 45.9861 2.29735C47.2734 3.16225 48.2791 4.40932 49.0032 6.03855C49.7273 7.64767 50.0894 9.54845 50.0894 11.7409C50.0894 13.9333 49.7273 15.8441 49.0032 17.4734C48.2791 19.0825 47.2734 20.3195 45.9861 21.1844C44.7189 22.0493 43.2707 22.4817 41.6415 22.4817ZM41.6415 20.4905C42.8684 20.4905 43.9445 20.1485 44.8698 19.4646C45.8151 18.7808 46.5493 17.7851 47.0723 16.4777C47.5952 15.1703 47.8567 13.5914 47.8567 11.7409C47.8567 9.89038 47.5952 8.31144 47.0723 7.00403C46.5493 5.69662 45.8151 4.70097 44.8698 4.0171C43.9445 3.33322 42.8684 2.99128 41.6415 2.99128C40.4145 2.99128 39.3284 3.33322 38.383 4.0171C37.4578 4.70097 36.7337 5.69662 36.2107 7.00403C35.6878 8.31144 35.4263 9.89038 35.4263 11.7409C35.4263 13.5914 35.6878 15.1703 36.2107 16.4777C36.7337 17.7851 37.4578 18.7808 38.383 19.4646C39.3284 20.1485 40.4145 20.4905 41.6415 20.4905Z" fill="#F1594B"/>
<path d="M57.6656 12.4951C56.2375 12.4951 55.0809 11.9722 54.1959 10.9263C53.331 9.86021 52.8986 8.47235 52.8986 6.76266C52.8986 5.05297 53.331 3.67516 54.1959 2.62923C55.0809 1.56319 56.2375 1.03017 57.6656 1.03017C59.0736 1.03017 60.2201 1.55313 61.1051 2.59906C61.9901 3.64499 62.4326 5.03286 62.4326 6.76266C62.4326 8.49246 61.9901 9.88033 61.1051 10.9263C60.2201 11.9722 59.0736 12.4951 57.6656 12.4951ZM70.4581 1.18103H72.2382L57.8164 22.3007H56.0364L70.4581 1.18103ZM57.6656 11.1375C58.6512 11.1375 59.4356 10.7553 60.0189 9.99095C60.6223 9.20651 60.924 8.13041 60.924 6.76266C60.924 5.39491 60.6223 4.32887 60.0189 3.56453C59.4356 2.78009 58.6512 2.38787 57.6656 2.38787C56.6599 2.38787 55.8654 2.78009 55.2821 3.56453C54.6988 4.34898 54.4071 5.41502 54.4071 6.76266C54.4071 8.1103 54.6988 9.17634 55.2821 9.96078C55.8654 10.7452 56.6599 11.1375 57.6656 11.1375ZM70.6089 22.4516C69.201 22.4516 68.0545 21.9286 67.1694 20.8827C66.2844 19.8166 65.8419 18.4288 65.8419 16.7191C65.8419 15.0094 66.2844 13.6316 67.1694 12.5857C68.0545 11.5196 69.201 10.9866 70.6089 10.9866C72.037 10.9866 73.1835 11.5196 74.0484 12.5857C74.9334 13.6316 75.376 15.0094 75.376 16.7191C75.376 18.4288 74.9334 19.8166 74.0484 20.8827C73.1835 21.9286 72.037 22.4516 70.6089 22.4516ZM70.6089 21.0939C71.6146 21.0939 72.4091 20.7017 72.9924 19.9172C73.5757 19.1328 73.8674 18.0667 73.8674 16.7191C73.8674 15.3714 73.5757 14.3054 72.9924 13.521C72.4091 12.7365 71.6146 12.3443 70.6089 12.3443C69.6234 12.3443 68.8288 12.7365 68.2254 13.521C67.6421 14.2853 67.3505 15.3513 67.3505 16.7191C67.3505 18.0868 67.6421 19.1629 68.2254 19.9474C68.8288 20.7117 69.6234 21.0939 70.6089 21.0939Z" fill="#F1594B"/>
<path d="M6.62689 40.524C5.56085 40.524 4.6004 40.2927 3.74556 39.8301C2.89071 39.3574 2.2169 38.7087 1.7241 37.884C1.24137 37.0594 1 36.1391 1 35.1234C1 34.1076 1.24137 33.1874 1.7241 32.3627C2.2169 31.5381 2.89071 30.8944 3.74556 30.4318C4.6004 29.9591 5.56085 29.7228 6.62689 29.7228C7.68287 29.7228 8.63829 29.9591 9.49313 30.4318C10.348 30.8944 11.0168 31.5381 11.4995 32.3627C11.9822 33.1774 12.2236 34.0976 12.2236 35.1234C12.2236 36.1492 11.9822 37.0744 11.4995 37.8991C11.0168 38.7137 10.348 39.3574 9.49313 39.8301C8.63829 40.2927 7.68287 40.524 6.62689 40.524ZM6.62689 39.1814C7.40128 39.1814 8.09521 39.0054 8.70869 38.6534C9.33222 38.3014 9.81998 37.8187 10.172 37.2052C10.534 36.5816 10.7151 35.8877 10.7151 35.1234C10.7151 34.3591 10.534 33.6701 10.172 33.0567C9.81998 32.4331 9.33222 31.9454 8.70869 31.5934C8.09521 31.2414 7.40128 31.0654 6.62689 31.0654C5.8525 31.0654 5.14851 31.2414 4.51492 31.5934C3.89139 31.9454 3.39859 32.4331 3.03654 33.0567C2.68455 33.6701 2.50855 34.3591 2.50855 35.1234C2.50855 35.8877 2.68455 36.5816 3.03654 37.2052C3.39859 37.8187 3.89139 38.3014 4.51492 38.6534C5.14851 39.0054 5.8525 39.1814 6.62689 39.1814Z" fill="#F1594B"/>
<path d="M21.5893 40.4033L19.3114 37.1599C19.0298 37.18 18.8086 37.1901 18.6477 37.1901H16.0379V40.4033H14.5293V29.8435H18.6477C20.0154 29.8435 21.0915 30.1703 21.876 30.824C22.6604 31.4777 23.0526 32.3778 23.0526 33.5243C23.0526 34.3389 22.8515 35.0329 22.4492 35.6061C22.0469 36.1794 21.4737 36.5967 20.7295 36.8582L23.2337 40.4033H21.5893ZM18.6024 35.9078C19.5578 35.9078 20.287 35.7017 20.7898 35.2893C21.2927 34.877 21.5441 34.2887 21.5441 33.5243C21.5441 32.76 21.2927 32.1767 20.7898 31.7744C20.287 31.3621 19.5578 31.1559 18.6024 31.1559H16.0379V35.9078H18.6024Z" fill="#F1594B"/>
<path d="M25.4899 29.8435H26.9984V40.4033H25.4899V29.8435Z" fill="#F1594B"/>
<path d="M37.4764 35.063H38.9246V39.1814C38.4016 39.6138 37.7932 39.9457 37.0992 40.177C36.4053 40.4083 35.6812 40.524 34.9269 40.524C33.8609 40.524 32.9004 40.2927 32.0456 39.8301C31.1907 39.3574 30.5169 38.7137 30.0241 37.8991C29.5414 37.0744 29.3 36.1492 29.3 35.1234C29.3 34.0976 29.5414 33.1723 30.0241 32.3477C30.5169 31.523 31.1907 30.8793 32.0456 30.4167C32.9105 29.9541 33.881 29.7228 34.9571 29.7228C35.8019 29.7228 36.5662 29.8636 37.2501 30.1452C37.944 30.4167 38.5323 30.819 39.0151 31.352L38.0798 32.2873C37.235 31.4727 36.2142 31.0654 35.0174 31.0654C34.2129 31.0654 33.4888 31.2414 32.8451 31.5934C32.2115 31.9353 31.7137 32.4181 31.3517 33.0416C30.9896 33.6551 30.8086 34.349 30.8086 35.1234C30.8086 35.8877 30.9896 36.5816 31.3517 37.2052C31.7137 37.8187 32.2115 38.3014 32.8451 38.6534C33.4888 39.0054 34.2078 39.1814 35.0023 39.1814C35.9477 39.1814 36.7724 38.9551 37.4764 38.5025V35.063Z" fill="#F1594B"/>
<path d="M41.8129 29.8435H43.3214V40.4033H41.8129V29.8435Z" fill="#F1594B"/>
<path d="M55.5643 29.8435V40.4033H54.3273L47.9914 32.5287V40.4033H46.4829V29.8435H47.7199L54.0558 37.7181V29.8435H55.5643Z" fill="#F1594B"/>
<path d="M65.4532 37.7633H59.8414L58.6798 40.4033H57.126L61.9081 29.8435H63.4016L68.1988 40.4033H66.6148L65.4532 37.7633ZM64.9252 36.5565L62.6473 31.3822L60.3694 36.5565H64.9252Z" fill="#F1594B"/>
<path d="M69.774 29.8435H71.2826V39.0909H77V40.4033H69.774V29.8435Z" fill="#F1594B"/>
<path d="M8.19884 1.18103V22.3007H6.02653V3.11197H1.04832V1.18103H8.19884Z" stroke="#F1594B" stroke-width="0.6" mask="url(#path-1-outside-1_19:233)"/>
<path d="M21.665 22.4817C20.0358 22.4817 18.5775 22.0493 17.2902 21.1844C16.023 20.3195 15.0274 19.0825 14.3033 17.4734C13.5993 15.8441 13.2473 13.9333 13.2473 11.7409C13.2473 9.54845 13.5993 7.64767 14.3033 6.03855C15.0274 4.40932 16.023 3.16225 17.2902 2.29735C18.5775 1.43245 20.0358 1 21.665 1C23.2942 1 24.7424 1.43245 26.0096 2.29735C27.2969 3.16225 28.3026 4.40932 29.0267 6.03855C29.7508 7.64767 30.1129 9.54845 30.1129 11.7409C30.1129 13.9333 29.7508 15.8441 29.0267 17.4734C28.3026 19.0825 27.2969 20.3195 26.0096 21.1844C24.7424 22.0493 23.2942 22.4817 21.665 22.4817ZM21.665 20.4905C22.892 20.4905 23.9681 20.1485 24.8933 19.4646C25.8387 18.7808 26.5728 17.7851 27.0958 16.4777C27.6187 15.1703 27.8802 13.5914 27.8802 11.7409C27.8802 9.89038 27.6187 8.31144 27.0958 7.00403C26.5728 5.69662 25.8387 4.70097 24.8933 4.0171C23.9681 3.33322 22.892 2.99128 21.665 2.99128C20.438 2.99128 19.3519 3.33322 18.4065 4.0171C17.4813 4.70097 16.7572 5.69662 16.2342 7.00403C15.7113 8.31144 15.4498 9.89038 15.4498 11.7409C15.4498 13.5914 15.7113 15.1703 16.2342 16.4777C16.7572 17.7851 17.4813 18.7808 18.4065 19.4646C19.3519 20.1485 20.438 20.4905 21.665 20.4905Z" stroke="#F1594B" stroke-width="0.6" mask="url(#path-1-outside-1_19:233)"/>
<path d="M41.6415 22.4817C40.0123 22.4817 38.554 22.0493 37.2667 21.1844C35.9995 20.3195 35.0039 19.0825 34.2798 17.4734C33.5758 15.8441 33.2238 13.9333 33.2238 11.7409C33.2238 9.54845 33.5758 7.64767 34.2798 6.03855C35.0039 4.40932 35.9995 3.16225 37.2667 2.29735C38.554 1.43245 40.0123 1 41.6415 1C43.2707 1 44.7189 1.43245 45.9861 2.29735C47.2734 3.16225 48.2791 4.40932 49.0032 6.03855C49.7273 7.64767 50.0894 9.54845 50.0894 11.7409C50.0894 13.9333 49.7273 15.8441 49.0032 17.4734C48.2791 19.0825 47.2734 20.3195 45.9861 21.1844C44.7189 22.0493 43.2707 22.4817 41.6415 22.4817ZM41.6415 20.4905C42.8684 20.4905 43.9445 20.1485 44.8698 19.4646C45.8151 18.7808 46.5493 17.7851 47.0723 16.4777C47.5952 15.1703 47.8567 13.5914 47.8567 11.7409C47.8567 9.89038 47.5952 8.31144 47.0723 7.00403C46.5493 5.69662 45.8151 4.70097 44.8698 4.0171C43.9445 3.33322 42.8684 2.99128 41.6415 2.99128C40.4145 2.99128 39.3284 3.33322 38.383 4.0171C37.4578 4.70097 36.7337 5.69662 36.2107 7.00403C35.6878 8.31144 35.4263 9.89038 35.4263 11.7409C35.4263 13.5914 35.6878 15.1703 36.2107 16.4777C36.7337 17.7851 37.4578 18.7808 38.383 19.4646C39.3284 20.1485 40.4145 20.4905 41.6415 20.4905Z" stroke="#F1594B" stroke-width="0.6" mask="url(#path-1-outside-1_19:233)"/>
<path d="M57.6656 12.4951C56.2375 12.4951 55.0809 11.9722 54.1959 10.9263C53.331 9.86021 52.8986 8.47235 52.8986 6.76266C52.8986 5.05297 53.331 3.67516 54.1959 2.62923C55.0809 1.56319 56.2375 1.03017 57.6656 1.03017C59.0736 1.03017 60.2201 1.55313 61.1051 2.59906C61.9901 3.64499 62.4326 5.03286 62.4326 6.76266C62.4326 8.49246 61.9901 9.88033 61.1051 10.9263C60.2201 11.9722 59.0736 12.4951 57.6656 12.4951ZM70.4581 1.18103H72.2382L57.8164 22.3007H56.0364L70.4581 1.18103ZM57.6656 11.1375C58.6512 11.1375 59.4356 10.7553 60.0189 9.99095C60.6223 9.20651 60.924 8.13041 60.924 6.76266C60.924 5.39491 60.6223 4.32887 60.0189 3.56453C59.4356 2.78009 58.6512 2.38787 57.6656 2.38787C56.6599 2.38787 55.8654 2.78009 55.2821 3.56453C54.6988 4.34898 54.4071 5.41502 54.4071 6.76266C54.4071 8.1103 54.6988 9.17634 55.2821 9.96078C55.8654 10.7452 56.6599 11.1375 57.6656 11.1375ZM70.6089 22.4516C69.201 22.4516 68.0545 21.9286 67.1694 20.8827C66.2844 19.8166 65.8419 18.4288 65.8419 16.7191C65.8419 15.0094 66.2844 13.6316 67.1694 12.5857C68.0545 11.5196 69.201 10.9866 70.6089 10.9866C72.037 10.9866 73.1835 11.5196 74.0484 12.5857C74.9334 13.6316 75.376 15.0094 75.376 16.7191C75.376 18.4288 74.9334 19.8166 74.0484 20.8827C73.1835 21.9286 72.037 22.4516 70.6089 22.4516ZM70.6089 21.0939C71.6146 21.0939 72.4091 20.7017 72.9924 19.9172C73.5757 19.1328 73.8674 18.0667 73.8674 16.7191C73.8674 15.3714 73.5757 14.3054 72.9924 13.521C72.4091 12.7365 71.6146 12.3443 70.6089 12.3443C69.6234 12.3443 68.8288 12.7365 68.2254 13.521C67.6421 14.2853 67.3505 15.3513 67.3505 16.7191C67.3505 18.0868 67.6421 19.1629 68.2254 19.9474C68.8288 20.7117 69.6234 21.0939 70.6089 21.0939Z" stroke="#F1594B" stroke-width="0.6" mask="url(#path-1-outside-1_19:233)"/>
<path d="M6.62689 40.524C5.56085 40.524 4.6004 40.2927 3.74556 39.8301C2.89071 39.3574 2.2169 38.7087 1.7241 37.884C1.24137 37.0594 1 36.1391 1 35.1234C1 34.1076 1.24137 33.1874 1.7241 32.3627C2.2169 31.5381 2.89071 30.8944 3.74556 30.4318C4.6004 29.9591 5.56085 29.7228 6.62689 29.7228C7.68287 29.7228 8.63829 29.9591 9.49313 30.4318C10.348 30.8944 11.0168 31.5381 11.4995 32.3627C11.9822 33.1774 12.2236 34.0976 12.2236 35.1234C12.2236 36.1492 11.9822 37.0744 11.4995 37.8991C11.0168 38.7137 10.348 39.3574 9.49313 39.8301C8.63829 40.2927 7.68287 40.524 6.62689 40.524ZM6.62689 39.1814C7.40128 39.1814 8.09521 39.0054 8.70869 38.6534C9.33222 38.3014 9.81998 37.8187 10.172 37.2052C10.534 36.5816 10.7151 35.8877 10.7151 35.1234C10.7151 34.3591 10.534 33.6701 10.172 33.0567C9.81998 32.4331 9.33222 31.9454 8.70869 31.5934C8.09521 31.2414 7.40128 31.0654 6.62689 31.0654C5.8525 31.0654 5.14851 31.2414 4.51492 31.5934C3.89139 31.9454 3.39859 32.4331 3.03654 33.0567C2.68455 33.6701 2.50855 34.3591 2.50855 35.1234C2.50855 35.8877 2.68455 36.5816 3.03654 37.2052C3.39859 37.8187 3.89139 38.3014 4.51492 38.6534C5.14851 39.0054 5.8525 39.1814 6.62689 39.1814Z" stroke="#F1594B" stroke-width="0.6" mask="url(#path-1-outside-1_19:233)"/>
<path d="M21.5893 40.4033L19.3114 37.1599C19.0298 37.18 18.8086 37.1901 18.6477 37.1901H16.0379V40.4033H14.5293V29.8435H18.6477C20.0154 29.8435 21.0915 30.1703 21.876 30.824C22.6604 31.4777 23.0526 32.3778 23.0526 33.5243C23.0526 34.3389 22.8515 35.0329 22.4492 35.6061C22.0469 36.1794 21.4737 36.5967 20.7295 36.8582L23.2337 40.4033H21.5893ZM18.6024 35.9078C19.5578 35.9078 20.287 35.7017 20.7898 35.2893C21.2927 34.877 21.5441 34.2887 21.5441 33.5243C21.5441 32.76 21.2927 32.1767 20.7898 31.7744C20.287 31.3621 19.5578 31.1559 18.6024 31.1559H16.0379V35.9078H18.6024Z" stroke="#F1594B" stroke-width="0.6" mask="url(#path-1-outside-1_19:233)"/>
<path d="M25.4899 29.8435H26.9984V40.4033H25.4899V29.8435Z" stroke="#F1594B" stroke-width="0.6" mask="url(#path-1-outside-1_19:233)"/>
<path d="M37.4764 35.063H38.9246V39.1814C38.4016 39.6138 37.7932 39.9457 37.0992 40.177C36.4053 40.4083 35.6812 40.524 34.9269 40.524C33.8609 40.524 32.9004 40.2927 32.0456 39.8301C31.1907 39.3574 30.5169 38.7137 30.0241 37.8991C29.5414 37.0744 29.3 36.1492 29.3 35.1234C29.3 34.0976 29.5414 33.1723 30.0241 32.3477C30.5169 31.523 31.1907 30.8793 32.0456 30.4167C32.9105 29.9541 33.881 29.7228 34.9571 29.7228C35.8019 29.7228 36.5662 29.8636 37.2501 30.1452C37.944 30.4167 38.5323 30.819 39.0151 31.352L38.0798 32.2873C37.235 31.4727 36.2142 31.0654 35.0174 31.0654C34.2129 31.0654 33.4888 31.2414 32.8451 31.5934C32.2115 31.9353 31.7137 32.4181 31.3517 33.0416C30.9896 33.6551 30.8086 34.349 30.8086 35.1234C30.8086 35.8877 30.9896 36.5816 31.3517 37.2052C31.7137 37.8187 32.2115 38.3014 32.8451 38.6534C33.4888 39.0054 34.2078 39.1814 35.0023 39.1814C35.9477 39.1814 36.7724 38.9551 37.4764 38.5025V35.063Z" stroke="#F1594B" stroke-width="0.6" mask="url(#path-1-outside-1_19:233)"/>
<path d="M41.8129 29.8435H43.3214V40.4033H41.8129V29.8435Z" stroke="#F1594B" stroke-width="0.6" mask="url(#path-1-outside-1_19:233)"/>
<path d="M55.5643 29.8435V40.4033H54.3273L47.9914 32.5287V40.4033H46.4829V29.8435H47.7199L54.0558 37.7181V29.8435H55.5643Z" stroke="#F1594B" stroke-width="0.6" mask="url(#path-1-outside-1_19:233)"/>
<path d="M65.4532 37.7633H59.8414L58.6798 40.4033H57.126L61.9081 29.8435H63.4016L68.1988 40.4033H66.6148L65.4532 37.7633ZM64.9252 36.5565L62.6473 31.3822L60.3694 36.5565H64.9252Z" stroke="#F1594B" stroke-width="0.6" mask="url(#path-1-outside-1_19:233)"/>
<path d="M69.774 29.8435H71.2826V39.0909H77V40.4033H69.774V29.8435Z" stroke="#F1594B" stroke-width="0.6" mask="url(#path-1-outside-1_19:233)"/>
</svg>
