<svg width="76" height="76" viewBox="0 0 76 76" fill="none" xmlns="http://www.w3.org/2000/svg">
<g clip-path="url(#clip0_19:120)">
<mask id="path-1-inside-1_19:120" fill="white">
<path d="M68.0365 11.1593C68.3325 10.5698 68.3857 9.88768 68.1847 9.25934L65.8059 1.77334C65.6455 1.25873 65.3246 0.80897 64.8902 0.489879C64.4558 0.170787 63.9306 -0.000879458 63.3916 3.38822e-06H60.7417C60.6081 0.0101855 60.4754 0.0313683 60.3453 0.0633367C60.0762 0.0250383 59.805 0.00388451 59.5333 3.38822e-06H11.4C9.7209 0.00201467 8.11116 0.66992 6.92386 1.85722C5.73657 3.04451 5.06866 4.65425 5.06665 6.33334V69.6667C5.06866 71.3458 5.73657 72.9555 6.92386 74.1428C8.11116 75.3301 9.7209 75.998 11.4 76H59.5333C59.925 75.999 60.3157 75.9599 60.6999 75.8835C61.9653 76.0916 63.2609 76.0208 64.4961 75.676C65.7312 75.3313 66.8762 74.7208 67.8509 73.8875C68.8255 73.0541 69.6064 72.0178 70.1388 70.8512C70.6712 69.6845 70.9424 68.4157 70.9333 67.1333V43.0667C70.9333 42.7308 70.7998 42.4086 70.5622 42.1711L65.8667 37.4756V15.4989L68.0365 11.1593ZM12.6667 60.8C12.6667 58.1125 13.7343 55.535 15.6346 53.6347C17.535 51.7343 20.1125 50.6667 22.8 50.6667C25.4875 50.6667 28.065 51.7343 29.9653 53.6347C31.8657 55.535 32.9333 58.1125 32.9333 60.8C32.9355 62.242 32.6265 63.6675 32.0273 64.9791C31.4281 66.2908 30.5529 67.4576 29.4614 68.4H12.6667V60.8ZM35.4667 60.8C35.4702 58.1393 34.6346 55.5452 33.0789 53.3867C31.5232 51.2282 29.3265 49.6152 26.8012 48.7771C24.2759 47.939 21.5507 47.9185 19.0131 48.7185C16.4755 49.5184 14.2547 51.0981 12.6667 53.2329V47.0782L13.281 47.6887C13.4824 47.8889 13.7453 48.0156 14.0274 48.0485C14.3095 48.0813 14.5944 48.0184 14.8365 47.8699C16.2172 47.0239 17.7221 46.3998 19.2964 46.0205C19.5728 45.954 19.8189 45.7964 19.9949 45.5731C20.1708 45.3497 20.2666 45.0737 20.2667 44.7893V41.8C20.2667 41.4641 20.4001 41.1419 20.6377 40.9043C20.8752 40.6668 21.1974 40.5333 21.5333 40.5333H24.0667C24.4026 40.5333 24.7248 40.6668 24.9623 40.9043C25.1999 41.1419 25.3333 41.4641 25.3333 41.8V44.7893C25.3334 45.0737 25.4291 45.3497 25.6051 45.5731C25.7811 45.7964 26.0271 45.954 26.3036 46.0205C27.8778 46.3998 29.3828 47.0239 30.7635 47.8699C31.0056 48.0184 31.2905 48.0813 31.5726 48.0485C31.8547 48.0156 32.1176 47.8889 32.319 47.6887L34.4533 45.5709C34.6926 45.3407 35.0117 45.2121 35.3438 45.2121C35.6758 45.2121 35.995 45.3407 36.2343 45.5709L38.0279 47.3733C38.2634 47.6106 38.3956 47.9314 38.3956 48.2657C38.3956 48.6 38.2634 48.9208 38.0279 49.1581L35.9125 51.2861C35.7124 51.4873 35.5857 51.7498 35.5526 52.0316C35.5195 52.3135 35.5821 52.5982 35.7301 52.8403C36.5762 54.2214 37.2003 55.7268 37.5795 57.3015C37.647 57.577 37.805 57.8219 38.0282 57.9969C38.2515 58.1719 38.527 58.2669 38.8107 58.2667H41.8C42.1359 58.2667 42.4581 58.4001 42.6957 58.6377C42.9332 58.8752 43.0667 59.1974 43.0667 59.5333V62.0667C43.0667 62.4026 42.9332 62.7248 42.6957 62.9623C42.4581 63.1999 42.1359 63.3333 41.8 63.3333H38.8107C38.5261 63.3331 38.2498 63.4287 38.0262 63.6047C37.8026 63.7808 37.6448 64.0269 37.5782 64.3036C37.2284 65.7407 36.6743 67.1202 35.9328 68.4H32.9156C34.5739 66.2137 35.4699 63.5441 35.4667 60.8ZM39.7733 65.8667H41.8C42.8078 65.8667 43.7744 65.4663 44.487 64.7537C45.1996 64.041 45.6 63.0745 45.6 62.0667V59.5333C45.6 58.5255 45.1996 57.559 44.487 56.8463C43.7744 56.1337 42.8078 55.7333 41.8 55.7333H39.7733C39.4235 54.5719 38.9567 53.4489 38.38 52.3817L39.8113 50.9415C40.521 50.2293 40.9195 49.2648 40.9195 48.2594C40.9195 47.2539 40.521 46.2894 39.8113 45.5772L38.0127 43.7798C37.2902 43.0912 36.3304 42.7071 35.3324 42.7071C34.3343 42.7071 33.3746 43.0912 32.6521 43.7798L31.2094 45.2137C30.1447 44.64 29.0247 44.1753 27.8667 43.8267V41.8C27.8667 40.7922 27.4663 39.8256 26.7537 39.113C26.041 38.4004 25.0745 38 24.0667 38H21.5333C20.5255 38 19.559 38.4004 18.8463 39.113C18.1337 39.8256 17.7333 40.7922 17.7333 41.8V43.8267C16.572 44.1768 15.449 44.6436 14.3817 45.22L12.9428 43.7899C12.8541 43.7013 12.7591 43.6341 12.6667 43.5569V7.6H56.4756L55.9487 9.25934C55.7479 9.88771 55.8011 10.5697 56.0969 11.1593L58.2667 15.4989V37.4756L53.5711 42.1711C53.3336 42.4086 53.2001 42.7308 53.2 43.0667V67.1333C53.2035 67.5574 53.2374 67.9807 53.3013 68.4H38.779C39.1742 67.582 39.5066 66.7351 39.7733 65.8667ZM63.3333 36.7333H60.8V16.4667H63.3333V36.7333ZM60.0577 39.2667H64.0756L66.6089 41.8H57.5244L60.0577 39.2667ZM63.3916 2.53334L65.7704 10.0269L63.8172 13.9333H60.3161L58.3629 10.0269L60.7417 2.53334H63.3916ZM11.4 73.4667C10.3922 73.4667 9.42562 73.0663 8.71298 72.3537C8.00034 71.641 7.59998 70.6745 7.59998 69.6667V6.33334C7.59998 5.32551 8.00034 4.35897 8.71298 3.64633C9.42562 2.93369 10.3922 2.53334 11.4 2.53334H58.0843L57.2799 5.06667H11.4C11.064 5.06667 10.7419 5.20012 10.5043 5.43767C10.2668 5.67521 10.1333 5.9974 10.1333 6.33334V69.6667C10.1333 70.0026 10.2668 70.3248 10.5043 70.5623C10.7419 70.7999 11.064 70.9333 11.4 70.9333H54.0677C54.5161 71.8774 55.1276 72.735 55.8739 73.4667H11.4ZM62.0667 73.4667C60.3876 73.4647 58.7778 72.7968 57.5905 71.6095C56.4032 70.4222 55.7353 68.8124 55.7333 67.1333V44.3333H68.4V67.1333C68.398 68.8124 67.7301 70.4222 66.5428 71.6095C65.3555 72.7968 63.7457 73.4647 62.0667 73.4667Z"/>
</mask>
<path d="M68.0365 11.1593C68.3325 10.5698 68.3857 9.88768 68.1847 9.25934L65.8059 1.77334C65.6455 1.25873 65.3246 0.80897 64.8902 0.489879C64.4558 0.170787 63.9306 -0.000879458 63.3916 3.38822e-06H60.7417C60.6081 0.0101855 60.4754 0.0313683 60.3453 0.0633367C60.0762 0.0250383 59.805 0.00388451 59.5333 3.38822e-06H11.4C9.7209 0.00201467 8.11116 0.66992 6.92386 1.85722C5.73657 3.04451 5.06866 4.65425 5.06665 6.33334V69.6667C5.06866 71.3458 5.73657 72.9555 6.92386 74.1428C8.11116 75.3301 9.7209 75.998 11.4 76H59.5333C59.925 75.999 60.3157 75.9599 60.6999 75.8835C61.9653 76.0916 63.2609 76.0208 64.4961 75.676C65.7312 75.3313 66.8762 74.7208 67.8509 73.8875C68.8255 73.0541 69.6064 72.0178 70.1388 70.8512C70.6712 69.6845 70.9424 68.4157 70.9333 67.1333V43.0667C70.9333 42.7308 70.7998 42.4086 70.5622 42.1711L65.8667 37.4756V15.4989L68.0365 11.1593ZM12.6667 60.8C12.6667 58.1125 13.7343 55.535 15.6346 53.6347C17.535 51.7343 20.1125 50.6667 22.8 50.6667C25.4875 50.6667 28.065 51.7343 29.9653 53.6347C31.8657 55.535 32.9333 58.1125 32.9333 60.8C32.9355 62.242 32.6265 63.6675 32.0273 64.9791C31.4281 66.2908 30.5529 67.4576 29.4614 68.4H12.6667V60.8ZM35.4667 60.8C35.4702 58.1393 34.6346 55.5452 33.0789 53.3867C31.5232 51.2282 29.3265 49.6152 26.8012 48.7771C24.2759 47.939 21.5507 47.9185 19.0131 48.7185C16.4755 49.5184 14.2547 51.0981 12.6667 53.2329V47.0782L13.281 47.6887C13.4824 47.8889 13.7453 48.0156 14.0274 48.0485C14.3095 48.0813 14.5944 48.0184 14.8365 47.8699C16.2172 47.0239 17.7221 46.3998 19.2964 46.0205C19.5728 45.954 19.8189 45.7964 19.9949 45.5731C20.1708 45.3497 20.2666 45.0737 20.2667 44.7893V41.8C20.2667 41.4641 20.4001 41.1419 20.6377 40.9043C20.8752 40.6668 21.1974 40.5333 21.5333 40.5333H24.0667C24.4026 40.5333 24.7248 40.6668 24.9623 40.9043C25.1999 41.1419 25.3333 41.4641 25.3333 41.8V44.7893C25.3334 45.0737 25.4291 45.3497 25.6051 45.5731C25.7811 45.7964 26.0271 45.954 26.3036 46.0205C27.8778 46.3998 29.3828 47.0239 30.7635 47.8699C31.0056 48.0184 31.2905 48.0813 31.5726 48.0485C31.8547 48.0156 32.1176 47.8889 32.319 47.6887L34.4533 45.5709C34.6926 45.3407 35.0117 45.2121 35.3438 45.2121C35.6758 45.2121 35.995 45.3407 36.2343 45.5709L38.0279 47.3733C38.2634 47.6106 38.3956 47.9314 38.3956 48.2657C38.3956 48.6 38.2634 48.9208 38.0279 49.1581L35.9125 51.2861C35.7124 51.4873 35.5857 51.7498 35.5526 52.0316C35.5195 52.3135 35.5821 52.5982 35.7301 52.8403C36.5762 54.2214 37.2003 55.7268 37.5795 57.3015C37.647 57.577 37.805 57.8219 38.0282 57.9969C38.2515 58.1719 38.527 58.2669 38.8107 58.2667H41.8C42.1359 58.2667 42.4581 58.4001 42.6957 58.6377C42.9332 58.8752 43.0667 59.1974 43.0667 59.5333V62.0667C43.0667 62.4026 42.9332 62.7248 42.6957 62.9623C42.4581 63.1999 42.1359 63.3333 41.8 63.3333H38.8107C38.5261 63.3331 38.2498 63.4287 38.0262 63.6047C37.8026 63.7808 37.6448 64.0269 37.5782 64.3036C37.2284 65.7407 36.6743 67.1202 35.9328 68.4H32.9156C34.5739 66.2137 35.4699 63.5441 35.4667 60.8ZM39.7733 65.8667H41.8C42.8078 65.8667 43.7744 65.4663 44.487 64.7537C45.1996 64.041 45.6 63.0745 45.6 62.0667V59.5333C45.6 58.5255 45.1996 57.559 44.487 56.8463C43.7744 56.1337 42.8078 55.7333 41.8 55.7333H39.7733C39.4235 54.5719 38.9567 53.4489 38.38 52.3817L39.8113 50.9415C40.521 50.2293 40.9195 49.2648 40.9195 48.2594C40.9195 47.2539 40.521 46.2894 39.8113 45.5772L38.0127 43.7798C37.2902 43.0912 36.3304 42.7071 35.3324 42.7071C34.3343 42.7071 33.3746 43.0912 32.6521 43.7798L31.2094 45.2137C30.1447 44.64 29.0247 44.1753 27.8667 43.8267V41.8C27.8667 40.7922 27.4663 39.8256 26.7537 39.113C26.041 38.4004 25.0745 38 24.0667 38H21.5333C20.5255 38 19.559 38.4004 18.8463 39.113C18.1337 39.8256 17.7333 40.7922 17.7333 41.8V43.8267C16.572 44.1768 15.449 44.6436 14.3817 45.22L12.9428 43.7899C12.8541 43.7013 12.7591 43.6341 12.6667 43.5569V7.6H56.4756L55.9487 9.25934C55.7479 9.88771 55.8011 10.5697 56.0969 11.1593L58.2667 15.4989V37.4756L53.5711 42.1711C53.3336 42.4086 53.2001 42.7308 53.2 43.0667V67.1333C53.2035 67.5574 53.2374 67.9807 53.3013 68.4H38.779C39.1742 67.582 39.5066 66.7351 39.7733 65.8667ZM63.3333 36.7333H60.8V16.4667H63.3333V36.7333ZM60.0577 39.2667H64.0756L66.6089 41.8H57.5244L60.0577 39.2667ZM63.3916 2.53334L65.7704 10.0269L63.8172 13.9333H60.3161L58.3629 10.0269L60.7417 2.53334H63.3916ZM11.4 73.4667C10.3922 73.4667 9.42562 73.0663 8.71298 72.3537C8.00034 71.641 7.59998 70.6745 7.59998 69.6667V6.33334C7.59998 5.32551 8.00034 4.35897 8.71298 3.64633C9.42562 2.93369 10.3922 2.53334 11.4 2.53334H58.0843L57.2799 5.06667H11.4C11.064 5.06667 10.7419 5.20012 10.5043 5.43767C10.2668 5.67521 10.1333 5.9974 10.1333 6.33334V69.6667C10.1333 70.0026 10.2668 70.3248 10.5043 70.5623C10.7419 70.7999 11.064 70.9333 11.4 70.9333H54.0677C54.5161 71.8774 55.1276 72.735 55.8739 73.4667H11.4ZM62.0667 73.4667C60.3876 73.4647 58.7778 72.7968 57.5905 71.6095C56.4032 70.4222 55.7353 68.8124 55.7333 67.1333V44.3333H68.4V67.1333C68.398 68.8124 67.7301 70.4222 66.5428 71.6095C65.3555 72.7968 63.7457 73.4647 62.0667 73.4667Z" fill="#F1594B" stroke="white" stroke-width="0.6" mask="url(#path-1-inside-1_19:120)"/>
<path d="M58.7437 47.3438C58.9531 47.1343 59.2372 47.0167 59.5333 47.0167C59.8295 47.0167 60.1135 47.1343 60.3229 47.3438C60.5323 47.5532 60.65 47.8372 60.65 48.1334V68.4C60.65 68.6962 60.5323 68.9802 60.3229 69.1896C60.1135 69.399 59.8295 69.5167 59.5333 69.5167C59.2372 69.5167 58.9531 69.399 58.7437 69.1896C58.5343 68.9802 58.4167 68.6962 58.4167 68.4V48.1334C58.4167 47.8372 58.5343 47.5532 58.7437 47.3438Z" fill="#F1594B" stroke="white" stroke-width="0.3"/>
<path d="M63.8104 47.3438C64.0198 47.1343 64.3038 47.0167 64.6 47.0167C64.8961 47.0167 65.1802 47.1343 65.3896 47.3438C65.599 47.5532 65.7166 47.8372 65.7166 48.1334V68.4C65.7166 68.6962 65.599 68.9802 65.3896 69.1896C65.1802 69.399 64.8961 69.5167 64.6 69.5167C64.3038 69.5167 64.0198 69.399 63.8104 69.1896C63.601 68.9802 63.4833 68.6962 63.4833 68.4V48.1334C63.4833 47.8372 63.601 47.5532 63.8104 47.3438Z" fill="#F1594B" stroke="white" stroke-width="0.3"/>
<path d="M44.3333 16.6166H44.4833V16.4666V12.6666V12.5166H44.3333H40.5333H40.3833V12.6666V16.4666V16.6166H40.5333H44.3333ZM40.5333 10.2833H44.3333C44.9654 10.2833 45.5716 10.5344 46.0186 10.9814C46.4656 11.4283 46.7167 12.0345 46.7167 12.6666V16.4666C46.7167 17.0987 46.4656 17.7049 46.0186 18.1519C45.5716 18.5989 44.9654 18.85 44.3333 18.85H40.5333C39.9012 18.85 39.295 18.5989 38.8481 18.1519C38.4011 17.7049 38.15 17.0987 38.15 16.4666V12.6666C38.15 12.0345 38.4011 11.4283 38.8481 10.9814C39.295 10.5344 39.9012 10.2833 40.5333 10.2833Z" fill="#F1594B" stroke="white" stroke-width="0.3"/>
<path d="M21.5333 16.6166H21.6833V16.4666V12.6666V12.5166H21.5333H17.7333H17.5833V12.6666V16.4666V16.6166H17.7333H21.5333ZM17.7333 10.2833H21.5333C22.1654 10.2833 22.7716 10.5344 23.2186 10.9814C23.6655 11.4283 23.9166 12.0345 23.9166 12.6666V16.4666C23.9166 17.0987 23.6655 17.7049 23.2186 18.1519C22.7716 18.5989 22.1654 18.85 21.5333 18.85H17.7333C17.1012 18.85 16.495 18.5989 16.048 18.1519C15.6011 17.7049 15.35 17.0987 15.35 16.4666V12.6666C15.35 12.0345 15.6011 11.4283 16.048 10.9814C16.495 10.5344 17.1012 10.2833 17.7333 10.2833Z" fill="#F1594B" stroke="white" stroke-width="0.3"/>
<path d="M32.9333 16.6166H33.0833V16.4666V12.6666V12.5166H32.9333H29.1333H28.9833V12.6666V16.4666V16.6166H29.1333H32.9333ZM29.1333 10.2833H32.9333C33.5654 10.2833 34.1716 10.5344 34.6186 10.9814C35.0655 11.4283 35.3166 12.0345 35.3166 12.6666V16.4666C35.3166 17.0987 35.0655 17.7049 34.6186 18.1519C34.1716 18.5989 33.5654 18.85 32.9333 18.85H29.1333C28.5012 18.85 27.895 18.5989 27.448 18.1519C27.0011 17.7049 26.75 17.0987 26.75 16.4666V12.6666C26.75 12.0345 27.0011 11.4283 27.448 10.9814C27.895 10.5344 28.5012 10.2833 29.1333 10.2833Z" fill="#F1594B" stroke="white" stroke-width="0.3"/>
<path d="M21.5333 28.0167H21.6833V27.8667V24.0667V23.9167H21.5333H17.7333H17.5833V24.0667V27.8667V28.0167H17.7333H21.5333ZM17.7333 21.6833H21.5333C22.1654 21.6833 22.7716 21.9344 23.2186 22.3814C23.6655 22.8283 23.9166 23.4346 23.9166 24.0667V27.8667C23.9166 28.4988 23.6655 29.105 23.2186 29.5519C22.7716 29.9989 22.1654 30.25 21.5333 30.25H17.7333C17.1012 30.25 16.495 29.9989 16.048 29.5519C15.6011 29.105 15.35 28.4988 15.35 27.8667V24.0667C15.35 23.4346 15.6011 22.8283 16.048 22.3814C16.495 21.9344 17.1012 21.6833 17.7333 21.6833Z" fill="#F1594B" stroke="white" stroke-width="0.3"/>
<path d="M32.9333 28.0167H33.0833V27.8667V24.0667V23.9167H32.9333H29.1333H28.9833V24.0667V27.8667V28.0167H29.1333H32.9333ZM29.1333 21.6833H32.9333C33.5654 21.6833 34.1716 21.9344 34.6186 22.3814C35.0655 22.8283 35.3166 23.4346 35.3166 24.0667V27.8667C35.3166 28.4988 35.0655 29.105 34.6186 29.5519C34.1716 29.9989 33.5654 30.25 32.9333 30.25H29.1333C28.5012 30.25 27.895 29.9989 27.448 29.5519C27.0011 29.105 26.75 28.4988 26.75 27.8667V24.0667C26.75 23.4346 27.0011 22.8283 27.448 22.3814C27.895 21.9344 28.5012 21.6833 29.1333 21.6833Z" fill="#F1594B" stroke="white" stroke-width="0.3"/>
<path d="M20.7721 57.7651C21.3724 57.3641 22.0781 57.15 22.8 57.15C23.768 57.15 24.6964 57.5346 25.3809 58.2191C26.0654 58.9036 26.45 59.832 26.45 60.8C26.45 61.5219 26.2359 62.2276 25.8348 62.8278C25.4338 63.4281 24.8637 63.8959 24.1968 64.1722C23.5298 64.4484 22.7959 64.5207 22.0879 64.3799C21.3799 64.239 20.7295 63.8914 20.219 63.3809C19.7086 62.8705 19.3609 62.2201 19.2201 61.5121C19.0793 60.804 19.1516 60.0702 19.4278 59.4032C19.7041 58.7363 20.1719 58.1662 20.7721 57.7651ZM22.0129 61.9779C22.2459 62.1336 22.5198 62.2167 22.8 62.2167C23.1757 62.2167 23.536 62.0674 23.8017 61.8017C24.0674 61.5361 24.2166 61.1757 24.2166 60.8C24.2166 60.5198 24.1336 60.2459 23.9779 60.0129C23.8222 59.78 23.601 59.5984 23.3421 59.4912C23.0832 59.3839 22.7984 59.3559 22.5236 59.4106C22.2488 59.4652 21.9964 59.6001 21.7982 59.7983C21.6001 59.9964 21.4652 60.2488 21.4105 60.5236C21.3559 60.7984 21.3839 61.0833 21.4911 61.3421C21.5984 61.601 21.7799 61.8222 22.0129 61.9779Z" fill="#F1594B" stroke="white" stroke-width="0.3"/>
</g>
<defs>
<clipPath id="clip0_19:120">
<rect width="76" height="76" fill="white"/>
</clipPath>
</defs>
</svg>
