<svg width="36" height="36" viewBox="0 0 36 36" fill="none" xmlns="http://www.w3.org/2000/svg">
<g clip-path="url(#clip0_6:114)">
<path d="M33.0347 15.6989V5.25695C33.0347 4.9731 32.8518 4.72139 32.5818 4.63378L18.4226 0.0323156C18.2792 -0.0145118 18.131 -0.00881657 17.9998 0.0388546C17.8674 -0.00839471 17.7196 -0.0140899 17.5762 0.0323156L3.41742 4.63378C3.14735 4.72131 2.96454 4.97261 2.96454 5.25695L2.96539 15.6741C2.95969 15.8264 2.5618 30.9733 17.661 35.9666C17.7274 35.989 17.7974 36 17.8671 36H18.1331C18.2028 36 18.2728 35.989 18.3392 35.9666C33.4379 30.9733 33.04 15.826 33.0347 15.6989ZM18.0267 34.6893H17.9729C3.92366 29.9799 4.25356 16.3041 4.2748 15.6989V5.73267L17.9807 1.27859C17.9873 1.27655 17.9934 1.27409 17.9999 1.27205C18.0056 1.27409 18.0121 1.27655 18.0182 1.27859L31.7245 5.73303L31.7254 15.7241C31.7306 15.8659 32.1017 29.9689 18.0267 34.6893Z" fill="#F1594B"/>
<path d="M28.9447 7.11907L18.3191 3.54345C18.2271 3.51293 18.1318 3.50555 18.0434 3.51293C17.9546 3.50604 17.8605 3.51293 17.7676 3.54345L7.14322 7.119C6.87723 7.209 6.69724 7.45867 6.69724 7.74013L6.69808 15.8764C6.70174 15.9933 7.23287 27.6323 17.8068 31.7284C17.8829 31.7577 17.9636 31.7724 18.0434 31.7724C18.1232 31.7724 18.2038 31.7577 18.28 31.7284C28.8543 27.6323 29.3862 15.9934 29.3907 15.8532V7.74013C29.3904 7.45874 29.2107 7.20907 28.9447 7.11907ZM18.0434 30.4137C8.51457 26.553 8.01114 15.938 8.00749 15.8536V8.21093L18.0434 4.83331L28.0805 8.21093L28.0809 15.83C28.0765 15.9375 27.5722 26.553 18.0434 30.4137Z" fill="#F1594B"/>
<path d="M25.5436 13.1611C25.265 12.9281 24.8516 12.9672 24.6207 13.2442L17.0383 22.3258L12.1472 17.1896C11.8959 16.9264 11.4826 16.9183 11.2211 17.1664C10.9588 17.416 10.9486 17.831 11.1979 18.0925L16.5956 23.7611C16.7198 23.891 16.8913 23.9647 17.0705 23.9647C17.0774 23.9647 17.0843 23.9647 17.0917 23.9638C17.2786 23.9582 17.4538 23.8722 17.5735 23.7292L25.6267 14.0835C25.8584 13.8058 25.8213 13.3928 25.5436 13.1611Z" fill="#F1594B"/>
</g>
<defs>
<clipPath id="clip0_6:114">
<rect width="36" height="36" fill="white"/>
</clipPath>
</defs>
</svg>
