<svg width="24" height="24" viewBox="0 0 24 24" fill="none" xmlns="http://www.w3.org/2000/svg">
<path d="M12 0C5.38028 0 0 5.38028 0 12C0 18.6197 5.38028 24 12 24C18.6197 24 24 18.6197 24 12C24 5.38028 18.6197 0 12 0ZM12 22.7887C6.05634 22.7887 1.21127 17.9437 1.21127 12C1.21127 6.05634 6.05634 1.21127 12 1.21127C17.9437 1.21127 22.7887 6.05634 22.7887 12C22.7887 17.9437 17.9437 22.7887 12 22.7887Z" fill="#D0B8B8"/>
<path d="M12.8451 11.9434L16.3662 8.42229C16.5915 8.19693 16.5915 7.80257 16.3662 7.57722C16.1408 7.35187 15.7465 7.35187 15.5211 7.57722L12 11.0983L8.47888 7.57722C8.25353 7.35187 7.85916 7.35187 7.63381 7.57722C7.40846 7.80257 7.40846 8.19693 7.63381 8.42229L11.1549 11.9434L7.63381 15.4364C7.40846 15.6617 7.40846 16.0561 7.63381 16.2814C7.74649 16.3941 7.9155 16.4504 8.05635 16.4504C8.19719 16.4504 8.36621 16.3941 8.47888 16.2814L12 12.7603L15.5211 16.2814C15.6338 16.3941 15.8028 16.4504 15.9437 16.4504C16.0845 16.4504 16.2535 16.3941 16.3662 16.2814C16.5915 16.0561 16.5915 15.6617 16.3662 15.4364L12.8451 11.9434Z" fill="#D0B8B8"/>
</svg>
