<svg width="76" height="76" viewBox="0 0 76 76" fill="none" xmlns="http://www.w3.org/2000/svg">
<path d="M72.2 5.69995H3.8C1.70228 5.70218 0.00222656 7.40223 0 9.49995V55.0999C0.00222656 57.1977 1.70228 58.8977 3.8 58.8999H16.572C17.6207 65.3862 26.6534 70.2999 38 70.2999C49.3466 70.2999 58.3794 65.3862 59.428 58.8999H72.2C74.2977 58.8977 75.9978 57.1977 76 55.0999V9.49995C75.9978 7.40223 74.2977 5.70218 72.2 5.69995ZM38 67.7666C27.701 67.7666 19 63.1267 19 57.6332C19 52.9017 25.5926 48.6293 34.3435 47.6941C36.7775 47.4348 39.232 47.4352 41.6658 47.6954C50.4076 48.6293 57 52.9019 57 57.6333C57 63.1267 48.299 67.7666 38 67.7666ZM73.4666 55.0999C73.4659 55.7992 72.8993 56.366 72.2 56.3666H59.4186C58.4793 50.795 51.4214 46.1897 41.9429 45.1781C39.3248 44.8981 36.6841 44.8977 34.0658 45.1768C24.5792 46.1894 17.5208 50.7948 16.5815 56.3664H3.8C3.10071 56.3657 2.53398 55.7991 2.53338 55.0998V33.5666H73.4668V55.0999H73.4666ZM73.4666 31.0333H2.53338V9.49995C2.53412 8.80066 3.10071 8.23393 3.8 8.23333H72.2C72.8993 8.23408 73.466 8.80066 73.4666 9.49995V31.0333Z" fill="#F1594B"/>
<path d="M32.9333 51.2999H29.1333C28.7974 51.2998 28.4752 51.4332 28.2375 51.6709C28 51.9084 27.8666 52.2306 27.8666 52.5667V62.6999C27.8666 63.3995 28.4336 63.9665 29.1332 63.9665C29.8328 63.9665 30.3998 63.3995 30.3998 62.6999V58.8999H32.9332C35.0318 58.8999 36.7332 57.1987 36.7332 55.0999C36.7332 53.0012 35.032 51.2999 32.9333 51.2999ZM32.9333 56.3665H30.4V53.8332H32.9333C33.6329 53.8332 34.2 54.4002 34.2 55.0998C34.2 55.7994 33.6329 56.3665 32.9333 56.3665Z" fill="#F1594B"/>
<path d="M45.6 61.4333H41.8V52.5667C41.8 51.8671 41.2328 51.3 40.5334 51.3C39.8338 51.3 39.2668 51.8671 39.2668 52.5667V62.6999C39.2666 63.0358 39.4001 63.3581 39.6377 63.5957C39.8752 63.8332 40.1975 63.9667 40.5335 63.9667H45.6C46.2996 63.9667 46.8666 63.3996 46.8666 62.7C46.8666 62.0005 46.2996 61.4333 45.6 61.4333Z" fill="#F1594B"/>
</svg>
