<svg width="76" height="76" viewBox="0 0 76 76" fill="none" xmlns="http://www.w3.org/2000/svg">
<path fill-rule="evenodd" clip-rule="evenodd" d="M35.2732 0.0511767C34.9873 0.0850478 34.1182 0.18161 33.342 0.265842C28.8609 0.752071 23.5384 2.46004 19.6004 4.67577C9.8124 10.1828 2.93507 19.4757 0.74801 30.1497C0.135953 33.1367 -0.00205678 34.6116 2.30231e-05 38.1433C0.00210283 41.8464 0.291196 44.2739 1.10514 47.4263C1.92102 50.5857 3.47523 54.4601 4.0503 54.7679C4.53593 55.0277 4.95308 54.9582 5.36221 54.5491C5.82749 54.0838 5.78827 53.7853 5.03687 52.0763C3.87054 49.4235 2.94369 46.0401 2.42077 42.5257C2.1186 40.4955 2.1654 35.0894 2.50426 32.8695C3.72124 24.8974 7.35615 17.8249 13.0826 12.287C15.908 9.5547 18.6789 7.60043 22.1259 5.90895C25.6653 4.17216 28.9401 3.14429 32.822 2.5517C35.0479 2.2118 40.4516 2.16589 42.4783 2.4694C49.3187 3.49415 54.8687 5.80867 59.9338 9.74901C61.2405 10.7656 64.6092 13.9499 64.8461 14.3926C64.9506 14.5878 64.4741 14.476 62.7111 13.8909C60.156 13.0431 59.7491 13.0326 59.4239 13.8061C59.1998 14.3393 59.2608 14.7024 59.631 15.0375C59.9776 15.3511 67.7437 17.9394 68.3383 17.9394C68.9276 17.9394 69.292 17.5395 69.2962 16.8878C69.298 16.6084 69.017 14.3454 68.6719 11.8591C67.9755 6.84189 67.91 6.64475 66.9288 6.61683C66.3072 6.59915 65.8742 7.06413 65.8802 7.7426C65.8826 7.99901 66.0382 9.26026 66.2259 10.5454L66.5673 12.8818L64.7732 11.1055C58.7911 5.18221 51.9348 1.71012 43.6403 0.403704C41.8172 0.116542 36.584 -0.103917 35.2732 0.0511767ZM36.0903 10.88C33.4371 11.3727 31.1346 12.8925 29.6716 15.1168C29.1693 15.8806 29.0123 15.9942 27.2642 16.8585C24.0961 18.4249 20.8747 21.1409 18.7976 23.9966C18.3681 24.5871 17.9666 25.0702 17.9054 25.0702C17.8442 25.0702 17.2663 24.7694 16.6211 24.4017C15.3139 23.6568 15.384 23.6775 14.8494 23.8807C14.3863 24.0567 13.5761 25.6603 13.1991 27.1472C12.8354 28.5812 12.9672 31.0274 13.4868 32.4843C13.7025 33.0895 14.0086 33.8039 14.1666 34.0719C14.4305 34.5191 14.4416 34.6847 14.303 36.0912C13.9439 39.733 14.7121 44.2491 16.2608 47.601C16.5874 48.308 16.8374 48.8994 16.8161 48.9153C16.795 48.9312 16.2975 49.2218 15.7106 49.5611C15.1235 49.9006 14.5386 50.2828 14.4107 50.4107C14.0222 50.7992 14.1394 51.4218 14.7824 52.3844C16.3537 54.7376 19.072 56.3172 21.903 56.5222C23.1546 56.6128 23.178 56.622 24.5478 57.5571C27.766 59.7541 31.9031 61.2624 35.6226 61.5947L36.6845 61.6896L36.7707 63.1612C36.8509 64.528 36.8858 64.6577 37.2618 64.9811C37.5087 65.1935 37.8519 65.3272 38.1413 65.3241C38.9378 65.3155 40.796 64.9328 41.6958 64.5923C43.3247 63.9758 45.1899 62.4433 46.223 60.8726C46.7252 60.1088 46.8823 59.9952 48.6303 59.1309C51.7985 57.5645 55.0198 54.8486 57.0969 51.9928C57.5264 51.4023 57.928 50.9192 57.9892 50.9192C58.0504 50.9192 58.6283 51.22 59.2734 51.5877C60.5806 52.3326 60.5105 52.3119 61.0451 52.1087C61.5082 51.9327 62.3184 50.3291 62.6955 48.8422C63.0591 47.4082 62.9274 44.962 62.4077 43.5051C62.192 42.8999 61.886 42.1855 61.7279 41.9175C61.4641 41.4704 61.4529 41.3047 61.5915 39.8982C61.9506 36.2564 61.1824 31.7403 59.6337 28.3884C59.3072 27.6814 59.0571 27.09 59.0784 27.0741C59.0995 27.0582 59.597 26.7676 60.1839 26.4283C60.771 26.0889 61.3559 25.7066 61.4838 25.5787C61.8723 25.1902 61.7551 24.5676 61.1121 23.605C59.542 21.2535 56.8225 19.6724 53.9961 19.4675C52.7455 19.3769 52.729 19.3703 51.2478 18.378C49.302 17.0745 47.6623 16.2647 45.5403 15.5594C43.632 14.9252 41.8845 14.5388 40.2719 14.3947L39.21 14.2998L39.1238 12.8282C39.0436 11.4614 39.0087 11.3317 38.6327 11.0083C38.1683 10.609 37.6821 10.5845 36.0903 10.88ZM36.7671 15.3025C36.7768 17.8834 36.9213 18.5283 37.5387 18.7449C38.462 19.0686 39.1062 18.3771 39.1274 17.0393L39.1357 16.5106L40.1832 16.6226C43.1916 16.944 46.3758 17.9733 48.6661 19.3645L49.549 19.9008L48.3322 20.5076C47.4371 20.9538 46.8142 21.4115 45.9769 22.2381C44.721 23.478 44.7623 23.4129 41.506 29.284L39.21 33.4237L39.1357 27.7653C39.0625 22.1861 39.0568 22.1023 38.7355 21.7811C38.3083 21.3542 37.5861 21.3542 37.159 21.7811C36.8364 22.1037 36.8326 22.1646 36.7893 27.8225C36.7653 30.966 36.6985 33.536 36.6407 33.5337C36.529 33.5289 31.4985 25.1256 30.9768 24.0719C28.931 19.9398 31.2099 14.6541 35.6446 13.2456C36.8166 12.8735 36.7578 12.7658 36.7671 15.3025ZM28.0193 20.3073C27.9473 22.1017 28.2335 23.5447 28.9524 25.0111C29.2289 25.5747 30.6243 27.9745 32.0534 30.344C33.4827 32.7135 34.6303 34.6743 34.6038 34.7013C34.5631 34.7431 20.162 26.4839 19.9843 26.3169C19.8252 26.1673 21.2345 24.3971 22.6442 22.9758C24.2647 21.342 25.2597 20.5465 27.0283 19.4702C27.6002 19.1221 28.0706 18.8358 28.0734 18.8341C28.0764 18.8323 28.052 19.4953 28.0193 20.3073ZM70.5323 21.4403C70.067 21.9056 70.1063 22.2041 70.8577 23.9131C72.024 26.5659 72.9508 29.9493 73.4738 33.4637C73.7759 35.4939 73.7291 40.9 73.3903 43.1199C72.1733 51.092 68.5384 58.1645 62.8119 63.7024C59.1962 67.199 54.8568 69.934 50.2065 71.6471C43.5544 74.0978 36.015 74.4327 28.8172 72.5976C24.3605 71.4613 19.4995 69.0441 15.8538 66.1514C14.4964 65.0745 11.2766 62.0206 11.0462 61.5919C10.9451 61.4037 11.4507 61.5235 13.1835 62.0985C15.7385 62.9463 16.1454 62.9568 16.4706 62.1833C16.6948 61.6501 16.6337 61.287 16.2635 60.9519C15.9465 60.665 8.17589 58.05 7.64049 58.05C7.43236 58.05 7.1134 58.1541 6.93187 58.2813C6.46629 58.6074 6.49243 59.1432 7.22482 64.2778C7.75413 67.9886 7.89645 68.7047 8.16712 69.0193C8.84053 69.8022 10.0238 69.3074 10.0143 68.2468C10.0119 67.9904 9.85548 66.7225 9.66651 65.4294L9.32305 63.0783L11.1191 64.8463C12.107 65.8188 13.3164 66.9466 13.8067 67.3528C20.8263 73.1687 30.0202 76.308 39.0614 75.9761C41.8381 75.8742 43.2818 75.7063 45.7923 75.1931C60.3708 72.213 72.1578 60.4264 75.1465 45.8397C75.7586 42.8527 75.8966 41.3778 75.8945 37.8461C75.8924 34.1431 75.6033 31.7155 74.7894 28.5631C73.9735 25.4037 72.4193 21.5293 71.8442 21.2215C71.3586 20.9617 70.9414 21.0312 70.5323 21.4403ZM55.0119 21.8692C56.2218 22.1912 57.3704 22.8319 58.28 23.6919C58.7312 24.1184 59.0707 24.4938 59.0343 24.526C58.8927 24.6511 41.3723 34.7264 41.2963 34.7264C41.2519 34.7264 41.2155 34.6551 41.2155 34.5679C41.2155 34.302 45.9619 25.8026 46.6657 24.8084C47.6503 23.4172 49.2134 22.3396 50.9091 21.8829C51.9285 21.6084 54.006 21.6015 55.0119 21.8692ZM24.7724 31.6699C29.5714 34.4418 33.446 36.7617 33.3824 36.8253C33.1806 37.027 22.5317 37.161 21.5317 36.9744C18.7487 36.4552 16.2919 34.169 15.4549 31.3197C15.0128 29.8144 15.304 26.4418 15.8639 26.5837C15.9646 26.6091 19.9736 28.8979 24.7724 31.6699ZM57.5089 29.0441C58.7532 31.8312 59.6275 35.9807 59.4627 38.3177L59.4138 39.0122L58.334 38.2862C57.7299 37.88 56.7153 37.3777 56.0313 37.1461L54.8085 36.732L48.5691 36.7578C44.4241 36.7749 42.4044 36.7343 42.5525 36.637C42.7931 36.4788 57.0072 28.23 57.0822 28.2049C57.1072 28.1967 57.2991 28.5744 57.5089 29.0441ZM39.2397 35.9419C39.9353 36.3591 40.3585 37.1304 40.3585 37.9806C40.3585 39.4486 39.3999 40.4059 37.9296 40.4059C36.5685 40.4059 35.536 39.3649 35.536 37.9925C35.536 36.0389 37.546 34.926 39.2397 35.9419ZM17.5971 37.7276C18.1294 38.0853 19.1322 38.5759 19.8255 38.8177L21.086 39.2574L27.3254 39.2325C31.4333 39.216 33.4888 39.257 33.342 39.3527C33.2194 39.4326 30.9799 40.732 28.3653 42.2403C25.7507 43.7488 23.528 45.0946 23.4258 45.2311C22.963 45.8498 23.5137 46.9082 24.2982 46.9082C24.602 46.9082 26.2717 46.0239 29.628 44.0856C32.316 42.5331 34.5523 41.263 34.5971 41.263C34.6422 41.263 34.679 41.3334 34.679 41.4195C34.679 41.7343 29.6062 50.7236 28.9741 51.5289C27.6653 53.1964 25.6783 54.1786 23.369 54.2993C21.0218 54.4219 19.1858 53.7835 17.6154 52.2984L16.7781 51.5068L17.3722 51.1608C21.1986 48.9333 21.1603 48.9633 21.1603 48.1914C21.1603 47.7633 20.5388 47.205 20.0632 47.2059C19.8904 47.2062 19.5327 47.3382 19.2682 47.4996L18.7875 47.7927L18.5804 47.3876C18.1548 46.5544 17.2889 44.0587 17.0122 42.8677C16.54 40.8335 16.2002 36.8076 16.5178 37.0074C16.579 37.0459 17.0648 37.37 17.5971 37.7276ZM54.4541 39.0345C55.7458 39.2739 57.3337 40.1427 58.3583 41.1703C59.8953 42.712 60.6766 44.5706 60.6766 46.6853C60.6766 47.8472 60.3453 49.4336 60.1027 49.4336C59.9053 49.4336 42.5392 39.3662 42.5078 39.2335C42.4447 38.967 53.1303 38.789 54.4541 39.0345ZM48.6146 45.4388C52.5933 47.7353 55.8762 49.6406 55.9102 49.6725C56.0747 49.827 54.6456 51.6099 53.178 53.0812C51.6504 54.6128 50.092 55.8317 48.4901 56.748L47.8168 57.1332L47.8757 55.6693C47.9444 53.9562 47.6681 52.4813 47.0262 51.1357C46.7089 50.4704 43.7275 45.4184 41.2659 41.3744C41.2285 41.313 41.2392 41.263 41.2894 41.263C41.3396 41.263 44.6359 43.1421 48.6146 45.4388ZM41.983 46.8753C43.4264 49.3038 44.747 51.5727 44.9177 51.9175C46.7545 55.6277 45.0635 60.5319 41.3464 62.2741C40.7433 62.5566 39.9993 62.8323 39.6928 62.8867L39.1357 62.9855V52.7184C39.1357 47.0716 39.1858 42.4534 39.2471 42.4557C39.3085 42.4581 40.5396 44.447 41.983 46.8753ZM36.7588 51.0394V59.4788L35.7042 59.366C32.7406 59.0495 29.4829 57.9944 27.2153 56.617L26.3455 56.0886L27.5623 55.4819C28.4574 55.0356 29.0803 54.5779 29.9176 53.7513C31.1729 52.512 31.1329 52.575 34.3794 46.7225C35.637 44.4552 36.6869 42.6 36.7125 42.6C36.738 42.6 36.7588 46.3977 36.7588 51.0394Z" fill="#F1594B"/>
</svg>
