<svg width="80" height="80" viewBox="0 0 80 80" fill="none" xmlns="http://www.w3.org/2000/svg">
<g filter="url(#filter0_d)">
<circle cx="40" cy="38" r="24" fill="white"/>
</g>
<circle cx="40.5" cy="38.5" r="19" fill="white" stroke="#F1594B"/>
<g filter="url(#filter1_d)">
<circle cx="40" cy="38" r="11" fill="url(#paint0_linear)"/>
</g>
<path d="M44.9286 36.9286H41.2857C41.1674 36.9286 41.0714 36.8326 41.0714 36.7143V33.0714C41.0714 32.4797 40.5917 32 40 32C39.4083 32 38.9286 32.4797 38.9286 33.0714V36.7143C38.9286 36.8326 38.8326 36.9286 38.7143 36.9286H35.0714C34.4797 36.9286 34 37.4083 34 38C34 38.5917 34.4797 39.0714 35.0714 39.0714H38.7143C38.8326 39.0714 38.9286 39.1674 38.9286 39.2857V42.9286C38.9286 43.5203 39.4083 44 40 44C40.5917 44 41.0714 43.5203 41.0714 42.9286V39.2857C41.0714 39.1674 41.1674 39.0714 41.2857 39.0714H44.9286C45.5203 39.0714 46 38.5917 46 38C46 37.4083 45.5203 36.9286 44.9286 36.9286Z" fill="white"/>
<defs>
<filter id="filter0_d" x="0" y="0" width="80" height="80" filterUnits="userSpaceOnUse" color-interpolation-filters="sRGB">
<feFlood flood-opacity="0" result="BackgroundImageFix"/>
<feColorMatrix in="SourceAlpha" type="matrix" values="0 0 0 0 0 0 0 0 0 0 0 0 0 0 0 0 0 0 127 0" result="hardAlpha"/>
<feOffset dy="2"/>
<feGaussianBlur stdDeviation="8"/>
<feComposite in2="hardAlpha" operator="out"/>
<feColorMatrix type="matrix" values="0 0 0 0 0.129412 0 0 0 0 0.121569 0 0 0 0 0.129412 0 0 0 0.15 0"/>
<feBlend mode="normal" in2="BackgroundImageFix" result="effect1_dropShadow"/>
<feBlend mode="normal" in="SourceGraphic" in2="effect1_dropShadow" result="shape"/>
</filter>
<filter id="filter1_d" x="13" y="13" width="54" height="54" filterUnits="userSpaceOnUse" color-interpolation-filters="sRGB">
<feFlood flood-opacity="0" result="BackgroundImageFix"/>
<feColorMatrix in="SourceAlpha" type="matrix" values="0 0 0 0 0 0 0 0 0 0 0 0 0 0 0 0 0 0 127 0" result="hardAlpha"/>
<feOffset dy="2"/>
<feGaussianBlur stdDeviation="8"/>
<feComposite in2="hardAlpha" operator="out"/>
<feColorMatrix type="matrix" values="0 0 0 0 0.425 0 0 0 0 0.425 0 0 0 0 0.425 0 0 0 0.1 0"/>
<feBlend mode="normal" in2="BackgroundImageFix" result="effect1_dropShadow"/>
<feBlend mode="normal" in="SourceGraphic" in2="effect1_dropShadow" result="shape"/>
</filter>
<linearGradient id="paint0_linear" x1="40" y1="27" x2="40" y2="49" gradientUnits="userSpaceOnUse">
<stop stop-color="#F9948B"/>
<stop offset="1" stop-color="#E85647"/>
</linearGradient>
</defs>
</svg>
