<svg width="36" height="36" viewBox="0 0 36 36" fill="none" xmlns="http://www.w3.org/2000/svg">
<path d="M4.21875 19.0547C4.21875 25.2579 9.26543 30.3047 15.4688 30.3047C21.6721 30.3047 26.7188 25.2579 26.7188 19.0547C26.7188 12.8514 21.6721 7.80466 15.4688 7.80466C9.26543 7.80466 4.21875 12.8514 4.21875 19.0547ZM15.4688 20.4609C14.6933 20.4609 14.0625 19.8301 14.0625 19.0547C14.0625 18.2793 14.6933 17.6484 15.4688 17.6484C16.2442 17.6484 16.875 18.2793 16.875 19.0547C16.875 19.8301 16.2442 20.4609 15.4688 20.4609ZM14.7656 16.3312C13.7788 16.5861 13.0002 17.3647 12.7453 18.3515H9.88924C10.2076 15.8113 12.2254 13.7936 14.7656 13.4751V16.3312ZM12.7453 19.7578C13.0002 20.7447 13.7788 21.5232 14.7656 21.7781V24.6342C12.2254 24.3158 10.2077 22.298 9.88924 19.7578H12.7453ZM16.1719 21.7781C17.1587 21.5232 17.9373 20.7446 18.1922 19.7578L21.0483 19.7571C20.7299 22.2973 18.7121 24.3157 16.1719 24.6342V21.7781ZM18.1922 18.3515C17.9373 17.3646 17.1587 16.5861 16.1719 16.3312V13.4751C18.7121 13.7935 20.7298 15.8113 21.0483 18.3515H18.1922ZM14.7656 9.23629V12.0585C11.4488 12.3893 8.80341 15.0348 8.47259 18.3515H5.65038C5.99569 13.483 9.89705 9.58159 14.7656 9.23629ZM5.65038 19.7578H8.47259C8.80341 23.0746 11.4488 25.72 14.7656 26.0508V28.873C9.89705 28.5277 5.99569 24.6264 5.65038 19.7578ZM16.1719 28.873V26.0508C19.4887 25.72 22.1341 23.0739 22.4649 19.7571L25.2871 19.7578C24.9418 24.6264 21.0405 28.5277 16.1719 28.873ZM25.2871 18.3515H22.4649C22.1341 15.0347 19.4887 12.3893 16.1719 12.0585V9.23629C21.0405 9.58159 24.9418 13.483 25.2871 18.3515Z" fill="#F1594B"/>
<path d="M35.2969 1.47653C34.9086 1.47653 34.5938 1.79132 34.5938 2.17966V3.58591H28.5469C28.1586 3.58591 27.8438 3.9007 27.8438 4.28903C27.8438 4.67737 28.1586 4.99216 28.5469 4.99216H34.5938V16.2422H30.0839C29.657 16.2422 29.3269 16.6206 29.388 17.0453C29.483 17.7066 29.5312 18.3825 29.5312 19.0547C29.5312 26.8087 23.2228 33.1172 15.4688 33.1172C7.71469 33.1172 1.40625 26.8087 1.40625 19.0547C1.40625 11.3006 7.71469 4.99216 15.4688 4.99216H22.2188C22.607 4.99216 22.9219 4.67737 22.9219 4.28903C22.9219 3.9007 22.607 3.58591 22.2188 3.58591H15.4688C6.93921 3.58591 0 10.5251 0 19.0547C0 27.5842 6.93921 34.5234 15.4688 34.5234C23.9983 34.5234 30.9375 27.5842 30.9375 19.0547C30.9375 18.586 30.9161 18.1155 30.8739 17.6484H34.5938V19.0547C34.5938 19.443 34.9086 19.7578 35.2969 19.7578C35.6851 19.7578 36 19.443 36 19.0547V2.17966C36 1.79132 35.6851 1.47653 35.2969 1.47653Z" fill="#F1594B"/>
<path d="M25.3828 4.99216C25.7711 4.99216 26.0859 4.67736 26.0859 4.28903C26.0859 3.90071 25.7711 3.58591 25.3828 3.58591C24.9945 3.58591 24.6797 3.90071 24.6797 4.28903C24.6797 4.67736 24.9945 4.99216 25.3828 4.99216Z" fill="#F1594B"/>
</svg>
