<svg width="142" height="48" viewBox="0 0 142 48" fill="none" xmlns="http://www.w3.org/2000/svg">
<path d="M20.7709 45.9983C20.5269 44.8403 22.6083 46.1308 20.7709 45.9983V45.9983ZM19.2864 45.6335C14.6257 44.3452 10.3932 42.0528 6.77214 38.8493C3.46162 36.1116 0.292047 31.8909 1.33256 27.2684C1.84765 23.7926 3.8872 20.8526 6.24976 18.2967C9.16719 15.3123 12.8084 13.0178 16.2334 10.8229C20.052 9.09824 23.879 7.40082 28.0127 6.75131C31.3916 5.6354 34.6663 6.08348 38.1307 6.21165C41.4677 7.44278 46.5644 6.75361 47.8116 2.95262C50.0667 -0.896965 46.7637 6.7443 50.7628 4.28464C53.7263 3.68632 56.4421 1.99499 59.3293 1.52603C64.6751 -1.0734 67.9148 4.87972 64.3717 8.76525C62.7361 12.0572 60.6723 15.0653 58.0253 17.581C54.7327 20.8655 51.4298 24.1863 47.6476 26.8133C44.4027 29.7651 40.6068 32.0052 37.8084 35.3227C35.0889 38.358 30.272 37.0199 34.3161 33.0061C36.7059 31.5664 38.1287 27.921 34.6324 30.8827C30.5067 33.2664 25.4335 34.9975 20.597 33.7094C17.3875 34.5617 13.2443 42.1051 10.0566 39.0162C8.90245 35.7669 12.1475 32.7547 13.748 30.0784C15.6957 26.4146 19.1583 23.9288 21.4825 20.5211C25.1106 17.6649 28.1446 14.0027 32.3157 11.837C33.9679 9.96572 43.3264 7.44403 36.0702 7.04883C31.4502 6.81948 26.6531 7.37632 22.4719 9.24108C18.3833 10.6597 14.4682 12.7722 11.1634 15.5808C7.65638 17.2363 5.57379 21.0007 3.44888 24.1427C2.19907 27.3177 1.69901 30.7796 3.87396 33.7138C5.79799 37.2118 9.0182 39.6737 12.3795 41.5136C14.5794 43.128 18.9451 44.3081 20.1507 45.8765L19.2864 45.6335ZM12.1005 38.6955C15.1879 36.3073 19.8844 34.5526 19.4914 30.0195C21.2946 26.0569 25.0588 23.2328 27.783 20.0118C31.0703 17.5192 33.7815 13.9779 37.5057 12.0152C39.2382 9.63137 42.562 10.3893 38.6908 11.946C35.3729 14.7468 31.6747 16.9428 28.8678 20.4226C25.6526 23.6914 21.7757 27.021 20.5187 31.4969C23.2675 29.9259 25.8272 26.5078 28.631 24.356C31.4936 21.5163 34.1102 18.5666 37.248 16.1789C39.3703 14.0573 42.6743 11.4631 42.5619 8.45193C39.6185 7.79867 36.4554 10.454 33.9146 12.1127C30.511 13.8606 27.3014 16.386 24.4651 19.1234C20.3386 23.0632 16.8288 27.5859 13.3616 32.1269C13.353 33.7397 8.97473 38.3677 12.1005 38.6955ZM41.0943 10.1524C40.8408 8.79589 43.6139 9.34155 41.3592 10.2026L41.0943 10.1524ZM35.2074 35.2702C38.6243 32.4611 41.5852 29.0313 44.9131 26.1647C47.9274 22.8497 51.5368 19.9833 53.8888 16.1669C51.3702 15.46 48.8926 20.3068 46.2053 21.5154C43.6499 23.6834 41.401 26.0807 39.4932 28.8256C38.808 29.9998 32.2236 35.1235 35.2074 35.2702ZM25.6831 33.114C32.3469 31.5572 38.9889 28.1373 42.7559 22.1903C40.4053 20.4172 35.0152 21.1028 32.2786 22.4038C29.155 25.6538 25.5705 28.6665 22.3637 31.6676C20.1165 33.8752 24.7461 32.8645 25.6831 33.114ZM48.6933 24.6321C51.3938 22.01 54.4003 19.9669 56.8855 17.1422C59.5409 14.2213 62.2863 11.1883 63.9219 7.55939C65.337 5.66988 65.1796 1.50718 61.9836 2.14656C58.1122 2.06813 54.8659 4.06435 51.2688 5.14575C49.1244 9.17523 45.6659 10.7742 42.4812 13.7556C40.7706 15.6122 33.8408 18.8437 36.0695 20.2484C38.9027 19.9251 43.5391 19.2257 44.8134 21.7306C47.1925 19.6086 49.3736 17.6435 51.9835 15.6751C54.3933 12.2458 56.9459 14.7483 54.1791 17.7486C52.4158 20.3495 48.5756 24.4744 48.6933 24.6321V24.6321ZM42.803 12.1382C45.3465 11.4939 45.8646 7.6478 43.4208 10.5885C43.4848 10.8401 41.877 12.5742 42.803 12.1382ZM46.5277 8.82737C50.0839 6.47691 48.2414 5.23538 45.6624 7.83431C45.495 8.30672 45.9693 9.13539 46.5277 8.82737ZM44.6814 7.40784C45.7508 5.60709 41.3795 8.23443 44.6814 7.40784V7.40784ZM47.0943 45.6346C45.0099 42.2062 48.2084 37.6699 49.7737 34.4167C51.5595 30.9525 54.7242 28.4403 57.5959 26.1829C61.1071 23.4552 64.8626 21.1338 68.6849 18.8962C71.3368 17.4842 71.7478 16.5957 68.2861 17.3994C66.4422 14.4134 74.1991 8.912 76.2578 10.9575C74.4967 10.865 68.3426 15.0708 70.0317 16.1376C74.4149 14.717 78.3253 12.283 81.8958 9.45435C87.3676 6.84434 80.9018 11.9092 83.5148 12.8416C87.4003 11.9945 85.8472 19.7647 89.4967 15.328C92.2564 12.3178 100.587 11.2656 97.3882 17.3952C94.0281 22.7314 100.939 17.0352 102.874 16.0593C105.326 15.6758 112.155 9.16977 110.615 14.6265C108.794 18.8261 104.484 21.2775 101.476 24.5543C102.071 26.341 107.13 20.7538 109.309 19.8723C109.58 21.8203 103.698 25.1885 101.19 26.8861C99.4805 28.9292 93.7863 28.9491 97.9422 26.1734C101.63 23.0798 104.84 19.4939 108.375 16.2506C110.458 11.56 102.782 18.0924 100.887 18.6849C95.951 21.4663 91.639 25.2567 87.5971 29.2586C86.6941 31.1395 80.0728 34.8628 83.5154 30.9421C87.5274 27.1726 91.858 23.6491 95.0785 19.1584C97.2402 16.9777 97.3845 11.444 93.3679 14.5505C88.7906 16.2531 85.0398 19.1042 83.1214 23.7135C80.9009 27.6157 77.8518 30.75 74.6782 33.8914C73.4461 35.499 69.2495 38.3263 69.3595 35.1345C70.9239 31.7118 73.6727 29.2991 75.8907 26.4226C78.2326 23.9585 81.0367 21.5058 83.5678 19.6826C88.3368 17.1327 83.0452 10.1608 79.9166 15.1261C77.5594 18.0513 75.2556 21.1295 72.4596 23.7785C70.0373 26.2671 67.7919 28.968 65.1479 31.1943C61.4874 35.3062 57.177 38.8335 53.015 42.4515C50.8479 43.4022 49.8024 46.5734 47.0943 45.6346ZM48.2765 44.5627C51.5997 42.1989 54.9107 39.6867 57.8459 36.8412C62.6456 32.7021 67.0637 28.0623 71.4241 23.4217C73.5128 20.8965 77.6115 17.126 78.2466 15.0046C74.7893 15.7916 71.7501 17.8746 68.8062 19.8651C65.4831 22.1787 61.8581 24.0836 58.7211 26.5462C55.1001 29.4581 51.3569 32.5563 49.5764 36.987C48.8775 38.8391 46.3958 43.5064 48.2765 44.5627ZM71.147 35.0857C71.0125 34.3423 70.6094 35.7144 71.147 35.0857V35.0857ZM72.0671 34.5974C75.6996 31.9904 78.5139 28.4412 81.1587 24.8537C82.7064 22.5557 84.5151 20.1133 80.9482 22.7013C77.7848 26.625 73.5048 29.7972 71.312 34.4941C70.9986 35.2119 71.8835 34.5865 72.0671 34.5974ZM78.1814 14.0375C82.6612 12.2516 78.7515 11.5276 77.7302 14.1108L78.1814 14.0375ZM44.485 35.9662C47.0314 33.262 50.0127 30.687 52.3835 27.6598C55.3786 25.9679 55.9053 21.2042 58.2196 19.7859C58.4254 23.2153 55.4423 25.8217 53.6084 28.4823C50.8122 31.2301 48.1676 34.2865 44.7366 36.152L44.485 35.9662ZM113.291 28.0343C108.166 26.3636 114.147 21.6204 115.938 19.4629C118.512 17.926 121.669 11.5673 116.794 15.5223C114.546 15.8953 111.078 20.8841 110.042 19.2301C112.202 15.7953 118.408 15.6787 118.073 10.8701C121.173 7.19186 125.803 4.88471 130.369 3.59554C133.489 1.84555 139.537 1.62189 139.37 6.58826C138.62 10.0026 135.71 12.3524 133.608 14.9881C130.281 17.3826 127.534 20.7829 123.928 22.6739C120.909 25.2579 117.144 27.435 113.291 28.0343ZM114.546 26.3675C119.215 25.0729 123.084 22.2058 126.823 19.2116C130.344 16.9081 133.027 13.6717 135.964 10.6838C138.441 9.04882 139.2 3.28047 135.254 3.43584C131.091 3.59826 127.314 5.72297 123.611 7.37621C121.242 8.44334 116.933 13.8563 122.187 11.7273C121.648 15.1013 119.286 17.8934 116.956 20.1704C116.573 21.9173 109.17 26.8437 114.546 26.3675Z" fill="white"/>
</svg>
